<svg width="4651" height="4979" viewBox="0 0 4651 4979" fill="none" xmlns="http://www.w3.org/2000/svg">
<path fill-rule="evenodd" clip-rule="evenodd" d="M4606.78 3562.58C4581.25 3545.11 4542.61 3545.11 4465.33 3545.11H3707.72C3682.41 3545.11 3669.76 3545.11 3658.49 3547.75C3646.55 3550.56 3636.94 3554.67 3626.67 3561.38C3616.97 3567.71 3607.39 3577.75 3588.24 3597.83C3298.65 3901.42 2891.46 4090.36 2440.45 4090.36C1561.52 4090.36 849.015 3372.79 849.015 2487.61C849.015 1602.44 1561.52 884.862 2440.45 884.862C2876.06 884.862 3270.79 1061.13 3558.16 1346.7C3577.14 1365.55 3586.62 1374.98 3596.11 1380.92C3606.16 1387.21 3615.5 1391.06 3627.06 1393.68C3637.98 1396.16 3650.17 1396.16 3674.55 1396.16H4442.75C4521.2 1396.16 4560.42 1396.16 4586.1 1378.39C4610.33 1361.62 4627.52 1330.79 4629.06 1301.36C4630.68 1270.17 4611.37 1238.92 4572.76 1176.4C4136.51 470.141 3358.82 0 2472.1 0C1106.8 0 0 1114.59 0 2489.5C0 3864.41 1106.8 4979 2472.1 4979C3375.34 4979 4165.44 4491.18 4596.78 3762.89C4633.67 3700.6 4652.12 3669.45 4650.1 3638.58C4648.19 3609.42 4630.89 3579.08 4606.78 3562.58ZM2518.84 3735.12C3200.83 3735.12 3753.69 3180.15 3753.69 2495.56C3753.69 1810.97 3200.83 1256 2518.84 1256C1836.86 1256 1284 1810.97 1284 2495.56C1284 3180.15 1836.86 3735.12 2518.84 3735.12Z" fill="#808080"/>
</svg>
