<svg width="15462" height="4980" viewBox="0 0 15462 4980" fill="none" xmlns="http://www.w3.org/2000/svg">
<path fill-rule="evenodd" clip-rule="evenodd" d="M4606.78 3562.58C4581.25 3545.11 4542.61 3545.11 4465.33 3545.11H3707.72C3682.41 3545.11 3669.76 3545.11 3658.49 3547.75C3646.55 3550.56 3636.94 3554.67 3626.67 3561.38C3616.97 3567.71 3607.39 3577.75 3588.24 3597.83C3298.65 3901.42 2891.46 4090.36 2440.45 4090.36C1561.52 4090.36 849.015 3372.79 849.015 2487.61C849.015 1602.44 1561.52 884.862 2440.45 884.862C2876.06 884.862 3270.79 1061.13 3558.16 1346.7C3577.14 1365.55 3586.62 1374.98 3596.11 1380.92C3606.16 1387.21 3615.5 1391.06 3627.06 1393.68C3637.98 1396.16 3650.17 1396.16 3674.55 1396.16H4442.75C4521.2 1396.16 4560.42 1396.16 4586.1 1378.39C4610.33 1361.62 4627.52 1330.79 4629.06 1301.36C4630.68 1270.17 4611.37 1238.92 4572.76 1176.4C4136.51 470.141 3358.82 0 2472.1 0C1106.8 0 0 1114.59 0 2489.5C0 3864.41 1106.8 4979 2472.1 4979C3375.34 4979 4165.44 4491.18 4596.78 3762.89C4633.67 3700.6 4652.12 3669.45 4650.1 3638.58C4648.19 3609.42 4630.89 3579.08 4606.78 3562.58ZM2518.84 3735.12C3200.83 3735.12 3753.69 3180.15 3753.69 2495.56C3753.69 1810.97 3200.83 1256 2518.84 1256C1836.86 1256 1284 1810.97 1284 2495.56C1284 3180.15 1836.86 3735.12 2518.84 3735.12Z" fill="#29BF15"/>
<path d="M5043.07 3040.86C5014.1 3040.86 4988.38 3046.55 4965.92 3057.95C4943.78 3069.01 4925.07 3085.13 4909.77 3106.29C4894.79 3127.44 4883.4 3153 4875.59 3182.95C4867.77 3212.89 4863.87 3246.58 4863.87 3284.02C4863.87 3334.48 4870.05 3377.61 4882.42 3413.41C4895.12 3448.9 4914.65 3476.08 4941.02 3494.96C4967.38 3513.51 5001.4 3522.79 5043.07 3522.79C5072.04 3522.79 5101.01 3519.53 5129.98 3513.02C5159.28 3506.51 5191.02 3497.24 5225.2 3485.19V3612.14C5193.62 3625.17 5162.53 3634.44 5131.93 3639.98C5101.33 3645.84 5066.99 3648.77 5028.91 3648.77C4955.34 3648.77 4894.79 3633.63 4847.27 3603.36C4800.07 3572.76 4765.07 3530.11 4742.29 3475.43C4719.5 3420.41 4708.11 3356.29 4708.11 3283.04C4708.11 3229.01 4715.43 3179.53 4730.08 3134.61C4744.73 3089.68 4766.21 3050.78 4794.53 3017.91C4822.85 2985.03 4857.85 2959.64 4899.51 2941.73C4941.18 2923.83 4989.03 2914.88 5043.07 2914.88C5078.55 2914.88 5114.03 2919.44 5149.51 2928.55C5185.32 2937.34 5219.5 2949.55 5252.05 2965.17L5203.22 3088.22C5176.53 3075.52 5149.67 3064.46 5122.66 3055.02C5095.64 3045.58 5069.11 3040.86 5043.07 3040.86ZM5514.75 3639H5365.82V2879.23H5514.75V3639ZM5896.58 3082.85C5947.04 3082.85 5990.49 3092.61 6026.95 3112.14C6063.41 3131.35 6091.57 3159.35 6111.43 3196.13C6131.28 3232.91 6141.21 3277.83 6141.21 3330.89V3403.16H5789.16C5790.79 3445.15 5803.32 3478.19 5826.76 3502.28C5850.52 3526.04 5883.4 3537.93 5925.39 3537.93C5960.22 3537.93 5992.12 3534.35 6021.09 3527.18C6050.07 3520.02 6079.85 3509.28 6110.45 3494.96V3610.19C6083.43 3623.54 6055.11 3633.3 6025.49 3639.49C5996.19 3645.67 5960.55 3648.77 5918.55 3648.77C5863.87 3648.77 5815.36 3638.67 5773.05 3618.49C5731.05 3598.31 5698.01 3567.55 5673.93 3526.21C5650.16 3484.87 5638.28 3432.78 5638.28 3369.96C5638.28 3306.15 5649.02 3253.1 5670.51 3210.78C5692.32 3168.13 5722.59 3136.23 5761.33 3115.07C5800.07 3093.59 5845.15 3082.85 5896.58 3082.85ZM5897.56 3188.8C5868.59 3188.8 5844.5 3198.08 5825.29 3216.64C5806.41 3235.19 5795.51 3264.33 5792.58 3304.04H6001.56C6001.24 3281.9 5997.17 3262.21 5989.36 3244.96C5981.87 3227.7 5970.48 3214.03 5955.18 3203.94C5940.2 3193.85 5921 3188.8 5897.56 3188.8ZM6485.94 3081.87C6559.18 3081.87 6615.33 3097.82 6654.39 3129.72C6693.46 3161.62 6712.99 3210.13 6712.99 3275.23V3639H6608.98L6580.18 3564.78H6576.27C6560.64 3584.31 6544.69 3600.26 6528.42 3612.63C6512.14 3625 6493.42 3634.12 6472.27 3639.98C6451.11 3645.84 6425.39 3648.77 6395.12 3648.77C6362.89 3648.77 6333.92 3642.58 6308.2 3630.21C6282.81 3617.84 6262.79 3598.96 6248.14 3573.57C6233.5 3547.85 6226.17 3515.3 6226.17 3475.91C6226.17 3417.97 6246.52 3375.33 6287.21 3347.98C6327.9 3320.32 6388.93 3305.02 6470.31 3302.09L6565.04 3299.16V3275.23C6565.04 3246.58 6557.55 3225.59 6542.58 3212.24C6527.6 3198.9 6506.77 3192.22 6480.08 3192.22C6453.71 3192.22 6427.83 3195.97 6402.44 3203.45C6377.05 3210.94 6351.66 3220.38 6326.27 3231.77L6276.95 3131.19C6305.92 3115.89 6338.31 3103.84 6374.12 3095.05C6410.25 3086.27 6447.53 3081.87 6485.94 3081.87ZM6565.04 3386.07L6507.42 3388.02C6459.24 3389.33 6425.72 3397.95 6406.84 3413.9C6388.28 3429.85 6379 3450.85 6379 3476.89C6379 3499.68 6385.68 3515.95 6399.02 3525.72C6412.37 3535.16 6429.79 3539.88 6451.27 3539.88C6483.17 3539.88 6510.03 3530.44 6531.84 3511.56C6553.97 3492.68 6565.04 3465.82 6565.04 3430.99V3386.07ZM7176.86 3082.85C7235.12 3082.85 7282 3098.8 7317.48 3130.7C7352.96 3162.27 7370.7 3213.06 7370.7 3283.04V3639H7221.78V3320.15C7221.78 3281.09 7214.62 3251.63 7200.29 3231.77C7186.3 3211.92 7164.16 3201.99 7133.89 3201.99C7088.31 3201.99 7057.23 3217.45 7040.62 3248.38C7024.02 3279.3 7015.72 3323.9 7015.72 3382.16V3639H6866.8V3093.1H6980.57L7000.59 3162.93H7008.89C7020.61 3144.05 7035.09 3128.75 7052.34 3117.03C7069.92 3105.31 7089.29 3096.68 7110.45 3091.15C7131.93 3085.61 7154.07 3082.85 7176.86 3082.85Z" fill="#29BF15"/>
<path d="M4967.87 3943.13C5059.99 3943.13 5127.21 3962.99 5169.53 4002.7C5211.85 4042.09 5233.01 4096.45 5233.01 4165.79C5233.01 4197.04 5228.29 4226.99 5218.85 4255.63C5209.41 4283.95 5193.95 4309.18 5172.46 4331.32C5151.3 4353.45 5122.98 4371.03 5087.5 4384.05C5052.02 4396.75 5008.24 4403.09 4956.15 4403.09H4891.21V4657H4739.84V3943.13H4967.87ZM4960.06 4067.16H4891.21V4279.07H4941.02C4969.34 4279.07 4993.91 4275.33 5014.75 4267.84C5035.58 4260.35 5051.69 4248.63 5063.09 4232.68C5074.48 4216.73 5080.18 4196.23 5080.18 4171.16C5080.18 4136 5070.41 4109.96 5050.88 4093.04C5031.35 4075.78 5001.07 4067.16 4960.06 4067.16ZM5504.98 4657H5356.05V3897.23H5504.98V4657ZM5885.35 4099.87C5958.59 4099.87 6014.75 4115.82 6053.81 4147.72C6092.87 4179.62 6112.4 4228.13 6112.4 4293.23V4657H6008.4L5979.59 4582.78H5975.68C5960.06 4602.31 5944.11 4618.26 5927.83 4630.63C5911.56 4643 5892.84 4652.12 5871.68 4657.98C5850.52 4663.84 5824.8 4666.77 5794.53 4666.77C5762.3 4666.77 5733.33 4660.58 5707.62 4648.21C5682.23 4635.84 5662.21 4616.96 5647.56 4591.57C5632.91 4565.85 5625.59 4533.3 5625.59 4493.91C5625.59 4435.97 5645.93 4393.33 5686.62 4365.98C5727.31 4338.32 5788.35 4323.02 5869.73 4320.09L5964.45 4317.16V4293.23C5964.45 4264.58 5956.97 4243.59 5941.99 4230.24C5927.02 4216.9 5906.18 4210.22 5879.49 4210.22C5853.12 4210.22 5827.25 4213.97 5801.86 4221.45C5776.46 4228.94 5751.07 4238.38 5725.68 4249.77L5676.37 4149.19C5705.34 4133.89 5737.73 4121.84 5773.54 4113.05C5809.67 4104.27 5846.94 4099.87 5885.35 4099.87ZM5964.45 4404.07L5906.84 4406.02C5858.66 4407.33 5825.13 4415.95 5806.25 4431.9C5787.7 4447.85 5778.42 4468.85 5778.42 4494.89C5778.42 4517.68 5785.09 4533.95 5798.44 4543.72C5811.78 4553.16 5829.2 4557.88 5850.68 4557.88C5882.58 4557.88 5909.44 4548.44 5931.25 4529.56C5953.39 4510.68 5964.45 4483.82 5964.45 4448.99V4404.07ZM6576.27 4100.85C6634.54 4100.85 6681.41 4116.8 6716.89 4148.7C6752.38 4180.27 6770.12 4231.06 6770.12 4301.04V4657H6621.19V4338.15C6621.19 4299.09 6614.03 4269.63 6599.71 4249.77C6585.71 4229.92 6563.57 4219.99 6533.3 4219.99C6487.73 4219.99 6456.64 4235.45 6440.04 4266.38C6423.44 4297.3 6415.14 4341.9 6415.14 4400.16V4657H6266.21V4111.1H6379.98L6400 4180.93H6408.3C6420.02 4162.05 6434.51 4146.75 6451.76 4135.03C6469.34 4123.31 6488.7 4114.68 6509.86 4109.15C6531.35 4103.61 6553.48 4100.85 6576.27 4100.85ZM7148.54 4100.85C7198.99 4100.85 7242.45 4110.61 7278.91 4130.14C7315.36 4149.35 7343.52 4177.35 7363.38 4214.13C7383.24 4250.91 7393.16 4295.83 7393.16 4348.89V4421.16H7041.11C7042.74 4463.15 7055.27 4496.19 7078.71 4520.28C7102.47 4544.04 7135.35 4555.93 7177.34 4555.93C7212.17 4555.93 7244.08 4552.35 7273.05 4545.18C7302.02 4538.02 7331.8 4527.28 7362.4 4512.96V4628.19C7335.38 4641.54 7307.06 4651.3 7277.44 4657.49C7248.14 4663.67 7212.5 4666.77 7170.51 4666.77C7115.82 4666.77 7067.32 4656.67 7025 4636.49C6983.01 4616.31 6949.97 4585.55 6925.88 4544.21C6902.12 4502.87 6890.23 4450.78 6890.23 4387.96C6890.23 4324.15 6900.98 4271.1 6922.46 4228.78C6944.27 4186.13 6974.54 4154.23 7013.28 4133.07C7052.02 4111.59 7097.1 4100.85 7148.54 4100.85ZM7149.51 4206.8C7120.54 4206.8 7096.45 4216.08 7077.25 4234.64C7058.37 4253.19 7047.46 4282.33 7044.53 4322.04H7253.52C7253.19 4299.9 7249.12 4280.21 7241.31 4262.96C7233.82 4245.7 7222.43 4232.03 7207.13 4221.94C7192.15 4211.85 7172.95 4206.8 7149.51 4206.8ZM7744.24 4548.11C7760.51 4548.11 7776.3 4546.49 7791.6 4543.23C7807.23 4539.98 7822.69 4535.91 7837.99 4531.02V4641.86C7822.04 4649.02 7802.18 4654.88 7778.42 4659.44C7754.98 4664.32 7729.26 4666.77 7701.27 4666.77C7668.72 4666.77 7639.42 4661.56 7613.38 4651.14C7587.66 4640.4 7567.32 4622.01 7552.34 4595.96C7537.7 4569.6 7530.37 4532.98 7530.37 4486.1V4222.92H7459.08V4159.93L7541.11 4110.12L7584.08 3994.89H7679.3V4111.1H7832.13V4222.92H7679.3V4486.1C7679.3 4506.93 7685.16 4522.56 7696.88 4532.98C7708.92 4543.07 7724.71 4548.11 7744.24 4548.11Z" fill="#29BF15"/>
</svg>
